solid OpenSCAD_Model
  facet normal -1 0 0
    outer loop
      vertex 31.7 0 20
      vertex 31.7 3 40
      vertex 31.7 3 20
    endloop
  endfacet
  facet normal -1 -0 0
    outer loop
      vertex 31.7 3 40
      vertex 31.7 0 20
      vertex 31.7 0 40
    endloop
  endfacet
  facet normal -0 0 1
    outer loop
      vertex 28.3 3 20
      vertex 31.7 0 20
      vertex 31.7 3 20
    endloop
  endfacet
  facet normal 0 0 1
    outer loop
      vertex 31.7 0 20
      vertex 28.3 3 20
      vertex 28.3 0 20
    endloop
  endfacet
  facet normal 1 -0 0
    outer loop
      vertex 28.3 0 40
      vertex 28.3 3 20
      vertex 28.3 3 40
    endloop
  endfacet
  facet normal 1 0 0
    outer loop
      vertex 28.3 3 20
      vertex 28.3 0 40
      vertex 28.3 0 20
    endloop
  endfacet
  facet normal -1 0 0
    outer loop
      vertex 61.7 0 20
      vertex 61.7 3 40
      vertex 61.7 3 20
    endloop
  endfacet
  facet normal -1 -0 0
    outer loop
      vertex 61.7 3 40
      vertex 61.7 0 20
      vertex 61.7 0 40
    endloop
  endfacet
  facet normal -0 0 1
    outer loop
      vertex 58.3 3 20
      vertex 61.7 0 20
      vertex 61.7 3 20
    endloop
  endfacet
  facet normal 0 0 1
    outer loop
      vertex 61.7 0 20
      vertex 58.3 3 20
      vertex 58.3 0 20
    endloop
  endfacet
  facet normal 1 -0 0
    outer loop
      vertex 58.3 0 40
      vertex 58.3 3 20
      vertex 58.3 3 40
    endloop
  endfacet
  facet normal 1 0 0
    outer loop
      vertex 58.3 3 20
      vertex 58.3 0 40
      vertex 58.3 0 20
    endloop
  endfacet
  facet normal -1 0 0
    outer loop
      vertex 91.7 0 20
      vertex 91.7 3 40
      vertex 91.7 3 20
    endloop
  endfacet
  facet normal -1 -0 0
    outer loop
      vertex 91.7 3 40
      vertex 91.7 0 20
      vertex 91.7 0 40
    endloop
  endfacet
  facet normal -0 0 1
    outer loop
      vertex 88.3 3 20
      vertex 91.7 0 20
      vertex 91.7 3 20
    endloop
  endfacet
  facet normal 0 0 1
    outer loop
      vertex 91.7 0 20
      vertex 88.3 3 20
      vertex 88.3 0 20
    endloop
  endfacet
  facet normal 1 -0 0
    outer loop
      vertex 88.3 0 40
      vertex 88.3 3 20
      vertex 88.3 3 40
    endloop
  endfacet
  facet normal 1 0 0
    outer loop
      vertex 88.3 3 20
      vertex 88.3 0 40
      vertex 88.3 0 20
    endloop
  endfacet
  facet normal 1 -0 0
    outer loop
      vertex 120 0 40
      vertex 120 3 0
      vertex 120 3 40
    endloop
  endfacet
  facet normal 1 0 0
    outer loop
      vertex 120 3 0
      vertex 120 0 40
      vertex 120 0 0
    endloop
  endfacet
  facet normal -0 0 1
    outer loop
      vertex 0 3 40
      vertex 28.3 0 40
      vertex 28.3 3 40
    endloop
  endfacet
  facet normal 0 0 1
    outer loop
      vertex 28.3 0 40
      vertex 0 3 40
      vertex 0 0 40
    endloop
  endfacet
  facet normal -0 0 1
    outer loop
      vertex 91.7 3 40
      vertex 120 0 40
      vertex 120 3 40
    endloop
  endfacet
  facet normal 0 0 1
    outer loop
      vertex 120 0 40
      vertex 91.7 3 40
      vertex 91.7 0 40
    endloop
  endfacet
  facet normal -0 0 1
    outer loop
      vertex 31.7 3 40
      vertex 58.3 0 40
      vertex 58.3 3 40
    endloop
  endfacet
  facet normal 0 0 1
    outer loop
      vertex 58.3 0 40
      vertex 31.7 3 40
      vertex 31.7 0 40
    endloop
  endfacet
  facet normal -0 0 1
    outer loop
      vertex 61.7 3 40
      vertex 88.3 0 40
      vertex 88.3 3 40
    endloop
  endfacet
  facet normal 0 0 1
    outer loop
      vertex 88.3 0 40
      vertex 61.7 3 40
      vertex 61.7 0 40
    endloop
  endfacet
  facet normal 0 0 -1
    outer loop
      vertex 0 0 0
      vertex 120 3 0
      vertex 120 0 0
    endloop
  endfacet
  facet normal -0 0 -1
    outer loop
      vertex 120 3 0
      vertex 0 0 0
      vertex 0 3 0
    endloop
  endfacet
  facet normal -1 0 0
    outer loop
      vertex 0 0 0
      vertex 0 3 40
      vertex 0 3 0
    endloop
  endfacet
  facet normal -1 -0 0
    outer loop
      vertex 0 3 40
      vertex 0 0 0
      vertex 0 0 40
    endloop
  endfacet
  facet normal 0 1 0
    outer loop
      vertex 120 3 40
      vertex 91.7 3 20
      vertex 91.7 3 40
    endloop
  endfacet
  facet normal 0 1 0
    outer loop
      vertex 120 3 0
      vertex 88.3 3 20
      vertex 91.7 3 20
    endloop
  endfacet
  facet normal 0 1 0
    outer loop
      vertex 88.3 3 20
      vertex 120 3 0
      vertex 61.7 3 20
    endloop
  endfacet
  facet normal 0 1 0
    outer loop
      vertex 61.7 3 20
      vertex 120 3 0
      vertex 58.3 3 20
    endloop
  endfacet
  facet normal 0 1 0
    outer loop
      vertex 0 3 0
      vertex 58.3 3 20
      vertex 120 3 0
    endloop
  endfacet
  facet normal 0 1 0
    outer loop
      vertex 58.3 3 20
      vertex 0 3 0
      vertex 31.7 3 20
    endloop
  endfacet
  facet normal 0 1 -0
    outer loop
      vertex 120 3 0
      vertex 91.7 3 20
      vertex 120 3 40
    endloop
  endfacet
  facet normal 0 1 -0
    outer loop
      vertex 88.3 3 20
      vertex 61.7 3 40
      vertex 88.3 3 40
    endloop
  endfacet
  facet normal 0 1 0
    outer loop
      vertex 61.7 3 40
      vertex 88.3 3 20
      vertex 61.7 3 20
    endloop
  endfacet
  facet normal 0 1 -0
    outer loop
      vertex 58.3 3 20
      vertex 31.7 3 40
      vertex 58.3 3 40
    endloop
  endfacet
  facet normal 0 1 0
    outer loop
      vertex 31.7 3 40
      vertex 58.3 3 20
      vertex 31.7 3 20
    endloop
  endfacet
  facet normal 0 1 -0
    outer loop
      vertex 28.3 3 20
      vertex 0 3 40
      vertex 28.3 3 40
    endloop
  endfacet
  facet normal 0 1 0
    outer loop
      vertex 28.3 3 20
      vertex 0 3 0
      vertex 0 3 40
    endloop
  endfacet
  facet normal 0 1 0
    outer loop
      vertex 31.7 3 20
      vertex 0 3 0
      vertex 28.3 3 20
    endloop
  endfacet
  facet normal 0 -1 0
    outer loop
      vertex 0 0 40
      vertex 28.3 0 20
      vertex 28.3 0 40
    endloop
  endfacet
  facet normal 0 -1 0
    outer loop
      vertex 0 0 0
      vertex 31.7 0 20
      vertex 28.3 0 20
    endloop
  endfacet
  facet normal 0 -1 -0
    outer loop
      vertex 31.7 0 20
      vertex 0 0 0
      vertex 58.3 0 20
    endloop
  endfacet
  facet normal 0 -1 -0
    outer loop
      vertex 58.3 0 20
      vertex 0 0 0
      vertex 61.7 0 20
    endloop
  endfacet
  facet normal 0 -1 0
    outer loop
      vertex 120 0 0
      vertex 61.7 0 20
      vertex 0 0 0
    endloop
  endfacet
  facet normal 0 -1 0
    outer loop
      vertex 61.7 0 20
      vertex 120 0 0
      vertex 88.3 0 20
    endloop
  endfacet
  facet normal 0 -1 0
    outer loop
      vertex 0 0 0
      vertex 28.3 0 20
      vertex 0 0 40
    endloop
  endfacet
  facet normal 0 -1 0
    outer loop
      vertex 31.7 0 20
      vertex 58.3 0 40
      vertex 31.7 0 40
    endloop
  endfacet
  facet normal 0 -1 -0
    outer loop
      vertex 58.3 0 40
      vertex 31.7 0 20
      vertex 58.3 0 20
    endloop
  endfacet
  facet normal 0 -1 0
    outer loop
      vertex 61.7 0 20
      vertex 88.3 0 40
      vertex 61.7 0 40
    endloop
  endfacet
  facet normal 0 -1 -0
    outer loop
      vertex 88.3 0 40
      vertex 61.7 0 20
      vertex 88.3 0 20
    endloop
  endfacet
  facet normal 0 -1 0
    outer loop
      vertex 91.7 0 20
      vertex 120 0 40
      vertex 91.7 0 40
    endloop
  endfacet
  facet normal 0 -1 0
    outer loop
      vertex 91.7 0 20
      vertex 120 0 0
      vertex 120 0 40
    endloop
  endfacet
  facet normal 0 -1 0
    outer loop
      vertex 88.3 0 20
      vertex 120 0 0
      vertex 91.7 0 20
    endloop
  endfacet
endsolid OpenSCAD_Model
