solid OpenSCAD_Model
  facet normal 1 -0 0
    outer loop
      vertex 140 0 88
      vertex 140 72 0
      vertex 140 72 88
    endloop
  endfacet
  facet normal 1 0 0
    outer loop
      vertex 140 72 0
      vertex 140 0 88
      vertex 140 0 0
    endloop
  endfacet
  facet normal -0 0 1
    outer loop
      vertex 0 72 88
      vertex 140 0 88
      vertex 140 72 88
    endloop
  endfacet
  facet normal 0 0 1
    outer loop
      vertex 140 0 88
      vertex 0 72 88
      vertex 0 0 88
    endloop
  endfacet
  facet normal 0 0 -1
    outer loop
      vertex 128 0 0
      vertex 140 72 0
      vertex 140 0 0
    endloop
  endfacet
  facet normal -0 0 -1
    outer loop
      vertex 140 72 0
      vertex 128 0 0
      vertex 128 72 0
    endloop
  endfacet
  facet normal 0 0 -1
    outer loop
      vertex 0 0 0
      vertex 12 72 0
      vertex 12 0 0
    endloop
  endfacet
  facet normal -0 0 -1
    outer loop
      vertex 12 72 0
      vertex 0 0 0
      vertex 0 72 0
    endloop
  endfacet
  facet normal -1 0 0
    outer loop
      vertex 0 0 0
      vertex 0 72 88
      vertex 0 72 0
    endloop
  endfacet
  facet normal -1 -0 0
    outer loop
      vertex 0 72 88
      vertex 0 0 0
      vertex 0 0 88
    endloop
  endfacet
  facet normal 0 1 0
    outer loop
      vertex 140 72 88
      vertex 100 72 76
      vertex 0 72 88
    endloop
  endfacet
  facet normal 0 1 0
    outer loop
      vertex 140 72 88
      vertex 128 72 75
      vertex 100 72 76
    endloop
  endfacet
  facet normal 0 1 -0
    outer loop
      vertex 140 72 0
      vertex 128 72 75
      vertex 140 72 88
    endloop
  endfacet
  facet normal 0 1 0
    outer loop
      vertex 128 72 75
      vertex 140 72 0
      vertex 128 72 0
    endloop
  endfacet
  facet normal 0 1 -0
    outer loop
      vertex 40 72 76
      vertex 0 72 88
      vertex 100 72 76
    endloop
  endfacet
  facet normal 0 1 0
    outer loop
      vertex 12 72 75
      vertex 40 72 76
      vertex 40 72 75
    endloop
  endfacet
  facet normal 0 1 0
    outer loop
      vertex 40 72 76
      vertex 12 72 75
      vertex 0 72 88
    endloop
  endfacet
  facet normal 0 1 0
    outer loop
      vertex 0 72 0
      vertex 12 72 75
      vertex 12 72 0
    endloop
  endfacet
  facet normal 0 1 0
    outer loop
      vertex 12 72 75
      vertex 0 72 0
      vertex 0 72 88
    endloop
  endfacet
  facet normal 0 1 0
    outer loop
      vertex 100 72 76
      vertex 128 72 75
      vertex 100 72 75
    endloop
  endfacet
  facet normal 0 -1 0
    outer loop
      vertex 0 0 88
      vertex 40 0 76
      vertex 140 0 88
    endloop
  endfacet
  facet normal 0 -1 0
    outer loop
      vertex 0 0 88
      vertex 12 0 75
      vertex 40 0 76
    endloop
  endfacet
  facet normal 0 -1 0
    outer loop
      vertex 0 0 0
      vertex 12 0 75
      vertex 0 0 88
    endloop
  endfacet
  facet normal 0 -1 -0
    outer loop
      vertex 12 0 75
      vertex 0 0 0
      vertex 12 0 0
    endloop
  endfacet
  facet normal 0 -1 0
    outer loop
      vertex 100 0 76
      vertex 140 0 88
      vertex 40 0 76
    endloop
  endfacet
  facet normal 0 -1 0
    outer loop
      vertex 128 0 75
      vertex 100 0 76
      vertex 100 0 75
    endloop
  endfacet
  facet normal 0 -1 0
    outer loop
      vertex 100 0 76
      vertex 128 0 75
      vertex 140 0 88
    endloop
  endfacet
  facet normal 0 -1 0
    outer loop
      vertex 140 0 0
      vertex 128 0 75
      vertex 128 0 0
    endloop
  endfacet
  facet normal 0 -1 0
    outer loop
      vertex 128 0 75
      vertex 140 0 0
      vertex 140 0 88
    endloop
  endfacet
  facet normal 0 -1 -0
    outer loop
      vertex 40 0 76
      vertex 12 0 75
      vertex 40 0 75
    endloop
  endfacet
  facet normal -1 0 0
    outer loop
      vertex 128 0 0
      vertex 128 72 75
      vertex 128 72 0
    endloop
  endfacet
  facet normal -1 -0 0
    outer loop
      vertex 128 72 75
      vertex 128 0 0
      vertex 128 0 75
    endloop
  endfacet
  facet normal 0 0 -1
    outer loop
      vertex 12 0 75
      vertex 40 72 75
      vertex 40 0 75
    endloop
  endfacet
  facet normal -0 0 -1
    outer loop
      vertex 40 72 75
      vertex 12 0 75
      vertex 12 72 75
    endloop
  endfacet
  facet normal 0 0 -1
    outer loop
      vertex 100 0 75
      vertex 128 72 75
      vertex 128 0 75
    endloop
  endfacet
  facet normal -0 0 -1
    outer loop
      vertex 128 72 75
      vertex 100 0 75
      vertex 100 72 75
    endloop
  endfacet
  facet normal 1 -0 0
    outer loop
      vertex 12 0 75
      vertex 12 72 0
      vertex 12 72 75
    endloop
  endfacet
  facet normal 1 0 0
    outer loop
      vertex 12 72 0
      vertex 12 0 75
      vertex 12 0 0
    endloop
  endfacet
  facet normal -1 0 0
    outer loop
      vertex 100 0 75
      vertex 100 72 76
      vertex 100 72 75
    endloop
  endfacet
  facet normal -1 -0 0
    outer loop
      vertex 100 72 76
      vertex 100 0 75
      vertex 100 0 76
    endloop
  endfacet
  facet normal 0 0 -1
    outer loop
      vertex 40 0 76
      vertex 100 72 76
      vertex 100 0 76
    endloop
  endfacet
  facet normal -0 0 -1
    outer loop
      vertex 100 72 76
      vertex 40 0 76
      vertex 40 72 76
    endloop
  endfacet
  facet normal 1 -0 0
    outer loop
      vertex 40 0 76
      vertex 40 72 75
      vertex 40 72 76
    endloop
  endfacet
  facet normal 1 0 0
    outer loop
      vertex 40 72 75
      vertex 40 0 76
      vertex 40 0 75
    endloop
  endfacet
endsolid OpenSCAD_Model
